; NON-PLATED HOLES START AT T1
; THROUGH (PLATED) HOLES START AT T100
M48
INCH
T1C0.133858
T2C0.037953
T100C0.035000
T101C0.040000
T102C0.038000
T103C0.035433
T104C0.030000
%
T1
X020630Y010524
X001653Y007059
T2
X001614Y010603
X001614Y009697
X000708Y010150
T100
X017598Y007571
X019567Y005272
X008779Y003437
X015354Y007532
X006338Y006548
X003661Y006587
X015866Y004973
X003661Y010587
X013866Y001973
X013858Y009855
X018307Y005272
X017858Y009855
X017858Y011115
X014866Y004973
X012866Y001973
X013866Y004973
X008779Y002437
X018307Y001272
X006338Y010548
X018598Y007571
X012047Y006548
X014866Y001973
X012047Y010548
X013149Y007571
X013858Y011115
X014149Y007571
X016354Y007532
X008779Y001437
X019567Y001272
X012866Y004973
X015866Y001973
T101
X010630Y010563
X010630Y006563
T102
X020787Y006264
X020787Y001264
X001614Y009697
X001614Y010603
X020787Y003264
X020787Y002264
X000708Y010150
X020787Y004264
X020787Y005264
T103
X009133Y010571
X009133Y007571
T104
X017126Y002059
X005039Y008595
X007637Y008555
X007637Y010555
X005039Y010595
X017126Y003061
T00
M30
