G04 MADE WITH FRITZING*
G04 WWW.FRITZING.ORG*
G04 DOUBLE SIDED*
G04 HOLES PLATED*
G04 CONTOUR ON CENTER OF CONTOUR VECTOR*
%ASAXBY*%
%FSLAX23Y23*%
%MOIN*%
%OFA0B0*%
%SFA1.0B1.0*%
%ADD10C,0.078000*%
%ADD11C,0.037953*%
%ADD12C,0.075000*%
%ADD13C,0.070000*%
%ADD14C,0.074000*%
%ADD15C,0.080000*%
%ADD16R,0.075000X0.075000*%
%LNMASK0*%
G90*
G70*
G54D10*
X71Y1015D03*
X161Y1060D03*
X161Y970D03*
G54D11*
X71Y1015D03*
X161Y1060D03*
X161Y970D03*
G54D12*
X1587Y497D03*
X1587Y197D03*
X1487Y497D03*
X1487Y197D03*
X1387Y497D03*
X1387Y197D03*
X1287Y497D03*
X1287Y197D03*
X366Y659D03*
X366Y1059D03*
G54D13*
X504Y860D03*
X504Y1060D03*
G54D12*
X634Y655D03*
X634Y1055D03*
G54D13*
X764Y856D03*
X764Y1056D03*
G54D14*
X913Y757D03*
X913Y1057D03*
G54D15*
X1063Y656D03*
X1063Y1056D03*
G54D12*
X1205Y655D03*
X1205Y1055D03*
X1386Y1112D03*
X1786Y1112D03*
X1386Y986D03*
X1786Y986D03*
X1760Y757D03*
X1860Y757D03*
X1535Y753D03*
X1635Y753D03*
X1315Y757D03*
X1415Y757D03*
G54D13*
X1713Y206D03*
X1713Y306D03*
G54D12*
X1957Y127D03*
X1957Y527D03*
X1831Y127D03*
X1831Y527D03*
G54D10*
X2079Y626D03*
X2079Y526D03*
X2079Y426D03*
X2079Y326D03*
X2079Y226D03*
X2079Y126D03*
G54D12*
X878Y344D03*
X878Y244D03*
X878Y144D03*
G54D16*
X1587Y497D03*
X1760Y757D03*
X1535Y753D03*
X1315Y757D03*
G04 End of Mask0*
M02*