; NON-PLATED HOLES START AT T1
; THROUGH (PLATED) HOLES START AT T100
M48
INCH
T1C0.133858
T100C0.035000
T101C0.030000
T102C0.035433
T103C0.031497
T104C0.040000
T105C0.038000
%
T1
X001653Y007059
X020630Y010524
T100
X019567Y001272
X015866Y004973
X012866Y004973
X015354Y007532
X012866Y001973
X013149Y007571
X013866Y004973
X014866Y004973
X003661Y010587
X013858Y009855
X017598Y007571
X012047Y006548
X016354Y007532
X013858Y011115
X013866Y001973
X014866Y001973
X017858Y011115
X019567Y005272
X006338Y010548
X006338Y006548
X003661Y006587
X008779Y002437
X012047Y010548
X015866Y001973
X017858Y009855
X008779Y003437
X014149Y007571
X018307Y001272
X008779Y001437
X018307Y005272
X018598Y007571
T101
X017126Y003061
X017126Y002059
X005039Y010595
X007637Y010555
X007637Y008555
X005039Y008595
T102
X009133Y010571
X009133Y007571
T103
X001693Y009579
X001693Y010563
T104
X010630Y010563
X010630Y006563
T105
X020787Y002264
X020787Y004264
X020787Y005264
X020787Y001264
X020787Y003264
X020787Y006264
T00
M30
