G04 MADE WITH FRITZING*
G04 WWW.FRITZING.ORG*
G04 DOUBLE SIDED*
G04 HOLES PLATED*
G04 CONTOUR ON CENTER OF CONTOUR VECTOR*
%ASAXBY*%
%FSLAX23Y23*%
%MOIN*%
%OFA0B0*%
%SFA1.0B1.0*%
%ADD10C,0.075000*%
%ADD11C,0.078000*%
%ADD12C,0.037953*%
%ADD13C,0.070000*%
%ADD14C,0.074000*%
%ADD15C,0.080000*%
%ADD16R,0.075000X0.075000*%
%ADD17C,0.024000*%
%LNCOPPER1*%
G90*
G70*
G54D10*
X882Y351D03*
X882Y251D03*
X882Y151D03*
G54D11*
X77Y1015D03*
X167Y1060D03*
X167Y969D03*
G54D12*
X77Y1015D03*
X167Y1060D03*
X167Y969D03*
G54D10*
X1587Y497D03*
X1587Y197D03*
X1487Y497D03*
X1487Y197D03*
X1387Y497D03*
X1387Y197D03*
X1287Y497D03*
X1287Y197D03*
X366Y659D03*
X366Y1059D03*
G54D13*
X504Y860D03*
X504Y1060D03*
G54D10*
X634Y655D03*
X634Y1055D03*
G54D13*
X764Y856D03*
X764Y1056D03*
G54D14*
X913Y757D03*
X913Y1057D03*
X913Y757D03*
X913Y1057D03*
G54D15*
X1063Y656D03*
X1063Y1056D03*
G54D10*
X1205Y655D03*
X1205Y1055D03*
X1386Y1112D03*
X1786Y1112D03*
X1386Y986D03*
X1786Y986D03*
X1760Y757D03*
X1860Y757D03*
X1535Y753D03*
X1635Y753D03*
X1315Y757D03*
X1415Y757D03*
G54D13*
X1713Y206D03*
X1713Y306D03*
G54D10*
X1957Y127D03*
X1957Y527D03*
X1831Y127D03*
X1831Y527D03*
G54D11*
X2079Y626D03*
X2079Y526D03*
X2079Y426D03*
X2079Y326D03*
X2079Y226D03*
X2079Y126D03*
G54D16*
X1587Y497D03*
X1760Y757D03*
X1535Y753D03*
X1315Y757D03*
G54D17*
X1528Y124D02*
X1495Y182D01*
D02*
X1813Y127D02*
X1528Y124D01*
D02*
X1369Y197D02*
X1304Y197D01*
D02*
X1418Y619D02*
X1391Y514D01*
D02*
X1415Y740D02*
X1418Y619D01*
D02*
X1205Y761D02*
X1297Y758D01*
D02*
X1205Y672D02*
X1205Y761D01*
D02*
X500Y738D02*
X503Y845D01*
D02*
X619Y664D02*
X500Y738D01*
D02*
X776Y847D02*
X899Y767D01*
D02*
X1705Y634D02*
X1753Y741D01*
D02*
X1786Y1003D02*
X1786Y1094D01*
D02*
X1791Y969D02*
X1854Y774D01*
D02*
X1544Y659D02*
X1537Y736D01*
D02*
X1705Y634D02*
X1544Y659D01*
D02*
X1713Y419D02*
X1705Y634D01*
D02*
X1713Y419D02*
X1713Y321D01*
D02*
X1713Y419D02*
X2060Y426D01*
D02*
X1346Y415D02*
X1713Y419D01*
D02*
X1297Y483D02*
X1346Y415D01*
D02*
X1205Y311D02*
X1280Y481D01*
D02*
X898Y159D02*
X1205Y311D01*
D02*
X1698Y205D02*
X1604Y199D01*
D02*
X1977Y324D02*
X2060Y326D01*
D02*
X1841Y141D02*
X1977Y324D01*
D02*
X349Y1059D02*
X186Y1060D01*
D02*
X489Y1059D02*
X384Y1059D01*
D02*
X209Y919D02*
X179Y955D01*
D02*
X311Y915D02*
X209Y919D01*
D02*
X574Y1001D02*
X496Y997D01*
D02*
X496Y997D02*
X311Y915D01*
D02*
X621Y1043D02*
X574Y1001D01*
D02*
X749Y1056D02*
X651Y1055D01*
D02*
X896Y1057D02*
X779Y1056D01*
D02*
X1043Y1056D02*
X931Y1057D01*
D02*
X1303Y1057D02*
X1222Y1055D01*
D02*
X1371Y1102D02*
X1303Y1057D01*
D02*
X1635Y848D02*
X1401Y977D01*
D02*
X1635Y771D02*
X1635Y848D01*
D02*
X1409Y839D02*
X1205Y958D01*
D02*
X1205Y958D02*
X1205Y1037D01*
D02*
X1414Y775D02*
X1409Y839D01*
D02*
X370Y882D02*
X500Y955D01*
D02*
X906Y955D02*
X1117Y761D01*
D02*
X500Y955D02*
X906Y955D01*
D02*
X1117Y761D02*
X1297Y758D01*
D02*
X366Y676D02*
X370Y882D01*
D02*
X1279Y513D02*
X1213Y639D01*
D02*
X964Y650D02*
X1043Y655D01*
D02*
X882Y592D02*
X964Y650D01*
D02*
X882Y368D02*
X882Y592D01*
D02*
X964Y655D02*
X921Y741D01*
D02*
X1043Y656D02*
X964Y655D01*
G04 End of Copper1*
M02*