G04 MADE WITH FRITZING*
G04 WWW.FRITZING.ORG*
G04 DOUBLE SIDED*
G04 HOLES PLATED*
G04 CONTOUR ON CENTER OF CONTOUR VECTOR*
%ASAXBY*%
%FSLAX23Y23*%
%MOIN*%
%OFA0B0*%
%SFA1.0B1.0*%
%ADD10C,0.075000*%
%ADD11C,0.062992*%
%ADD12C,0.070000*%
%ADD13C,0.074000*%
%ADD14C,0.080000*%
%ADD15C,0.078000*%
%ADD16R,0.075000X0.075000*%
%ADD17R,0.062992X0.062992*%
%ADD18C,0.024000*%
%LNCOPPER1*%
G90*
G70*
G54D10*
X1587Y497D03*
X1587Y197D03*
X1487Y497D03*
X1487Y197D03*
X1387Y497D03*
X1387Y197D03*
X1287Y497D03*
X1287Y197D03*
G54D11*
X169Y958D03*
X169Y1056D03*
G54D10*
X366Y659D03*
X366Y1059D03*
G54D12*
X504Y860D03*
X504Y1060D03*
G54D10*
X634Y655D03*
X634Y1055D03*
G54D12*
X764Y856D03*
X764Y1056D03*
G54D13*
X913Y757D03*
X913Y1057D03*
X913Y757D03*
X913Y1057D03*
G54D14*
X1063Y656D03*
X1063Y1056D03*
G54D10*
X1205Y655D03*
X1205Y1055D03*
X1386Y1112D03*
X1786Y1112D03*
X1386Y986D03*
X1786Y986D03*
X1760Y757D03*
X1860Y757D03*
X1535Y753D03*
X1635Y753D03*
X1315Y757D03*
X1415Y757D03*
G54D12*
X1713Y206D03*
X1713Y306D03*
G54D10*
X1957Y127D03*
X1957Y527D03*
X1831Y127D03*
X1831Y527D03*
G54D15*
X2079Y626D03*
X2079Y526D03*
X2079Y426D03*
X2079Y326D03*
X2079Y226D03*
X2079Y126D03*
G54D10*
X878Y344D03*
X878Y244D03*
X878Y144D03*
G54D16*
X1587Y497D03*
G54D17*
X169Y958D03*
G54D16*
X1760Y757D03*
X1535Y753D03*
X1315Y757D03*
G54D18*
X1516Y131D02*
X1494Y181D01*
D02*
X1813Y127D02*
X1516Y131D01*
D02*
X1369Y197D02*
X1304Y197D01*
D02*
X1413Y740D02*
X1389Y515D01*
D02*
X1205Y761D02*
X1297Y758D01*
D02*
X1205Y672D02*
X1205Y761D01*
D02*
X500Y738D02*
X503Y845D01*
D02*
X619Y664D02*
X500Y738D01*
D02*
X776Y847D02*
X899Y767D01*
D02*
X1705Y634D02*
X1753Y741D01*
D02*
X1786Y1003D02*
X1786Y1094D01*
D02*
X1791Y969D02*
X1854Y774D01*
D02*
X1705Y634D02*
X1551Y631D01*
D02*
X1551Y631D02*
X1538Y736D01*
D02*
X1706Y414D02*
X1705Y634D01*
D02*
X1713Y419D02*
X1713Y321D01*
D02*
X1713Y419D02*
X2060Y426D01*
D02*
X1292Y422D02*
X1713Y419D01*
D02*
X1288Y480D02*
X1292Y422D01*
D02*
X1292Y323D02*
X1287Y480D01*
D02*
X894Y151D02*
X1292Y323D01*
D02*
X1698Y205D02*
X1604Y199D01*
D02*
X1890Y312D02*
X2060Y325D01*
D02*
X1841Y141D02*
X1886Y203D01*
D02*
X1886Y203D02*
X1890Y312D01*
D02*
X349Y1059D02*
X185Y1057D01*
D02*
X489Y1059D02*
X384Y1059D01*
D02*
X398Y958D02*
X185Y958D01*
D02*
X574Y1001D02*
X496Y997D01*
D02*
X496Y997D02*
X398Y958D01*
D02*
X621Y1043D02*
X574Y1001D01*
D02*
X749Y1056D02*
X651Y1055D01*
D02*
X896Y1057D02*
X779Y1056D01*
D02*
X1043Y1056D02*
X931Y1057D01*
D02*
X1303Y1057D02*
X1222Y1055D01*
D02*
X1371Y1102D02*
X1303Y1057D01*
D02*
X1633Y871D02*
X1441Y871D01*
D02*
X1441Y871D02*
X1393Y970D01*
D02*
X1635Y771D02*
X1633Y871D01*
D02*
X1377Y851D02*
X1205Y860D01*
D02*
X1205Y860D02*
X1205Y1037D01*
D02*
X1408Y773D02*
X1377Y851D01*
D02*
X370Y882D02*
X500Y955D01*
D02*
X906Y955D02*
X1117Y761D01*
D02*
X500Y955D02*
X906Y955D01*
D02*
X1117Y761D02*
X1297Y758D01*
D02*
X366Y676D02*
X370Y882D01*
D02*
X1279Y513D02*
X1213Y639D01*
D02*
X883Y658D02*
X1043Y657D01*
D02*
X878Y361D02*
X883Y658D01*
D02*
X1043Y657D02*
X913Y658D01*
D02*
X913Y658D02*
X913Y739D01*
G04 End of Copper1*
M02*