; NON-PLATED HOLES START AT T1
; THROUGH (PLATED) HOLES START AT T100
M48
INCH
T1C0.118110
T2C0.043307
T3C0.044000
T100C0.086614
T101C0.053000
T102C0.040000
T103C0.070866
T104C0.038000
T105C0.036000
T106C0.052972
T107C0.035433
T108C0.040639
T109C0.047244
T110C0.042000
T111C0.015748
T112C0.035000
%
T1
X001400Y013079
X000950Y023179
X044000Y022879
T2
X043534Y004449
X043534Y006221
T3
X000548Y004865
X001532Y004865
X000548Y000928
X001532Y000928
X003500Y002897
T100
X043495Y003052
X043495Y007618
T101
X003500Y000929
X003500Y004864
X003500Y003880
T102
X027150Y008079
X029150Y008079
X028150Y008079
X026150Y008079
X027150Y004079
X028150Y004079
X029150Y004079
X030150Y008079
X030150Y004079
X025150Y008079
X026150Y004079
X025150Y004079
T103
X043500Y003079
X043500Y007629
T104
X040550Y010278
X033850Y005629
X038550Y020279
X030550Y020279
X038500Y006679
X038550Y010278
X010551Y014913
X001700Y019029
X033850Y003629
X037550Y010278
X034550Y020279
X035550Y010278
X006800Y001829
X034550Y010278
X009551Y014913
X001700Y021029
X032550Y020279
X040550Y020279
X001700Y017029
X027550Y010278
X039550Y020279
X028550Y020279
X032550Y010278
X029550Y010278
X030550Y010278
X001700Y015029
X035550Y020279
X027550Y020279
X036550Y010278
X038500Y005679
X026550Y010278
X026550Y020279
X033550Y020279
X033850Y004629
X028550Y010278
X007800Y001829
X031550Y010278
X037550Y020279
X033550Y010278
X038500Y004679
X039550Y010278
X036550Y020279
X038500Y003679
X033850Y006629
X029550Y020279
X008551Y014913
X031550Y020279
T105
X042550Y004891
X042550Y006713
X042550Y005779
X042550Y003957
T106
X003500Y001913
X001532Y002897
T107
X042650Y019179
T108
X016778Y001863
X012778Y000864
X022778Y001863
X023778Y000864
X025778Y000864
X028778Y000864
X018778Y000864
X016778Y000864
X028778Y001863
X014778Y001863
X013778Y000864
X021778Y000864
X010778Y000864
X024778Y001863
X020778Y001863
X026778Y001863
X027778Y000864
X012778Y001863
X015778Y001863
X011778Y001863
X022778Y000864
X020778Y000864
X019778Y000864
X017778Y000864
X018778Y001863
X014778Y000864
X009778Y000864
X015778Y000864
X021778Y001863
X023778Y001863
X025778Y001863
X010778Y001863
X027778Y001863
X026778Y000864
X011778Y000864
X013778Y001863
X009778Y001863
X017778Y001863
X019778Y001863
X024778Y000864
T109
X008575Y013260
X007094Y022079
X004165Y016764
X004165Y017764
X014835Y017764
X006094Y022079
X014835Y016764
X012000Y022079
X010575Y013260
X009575Y013260
X013000Y022079
T110
X001881Y008864
X003850Y008864
X001881Y010833
X003850Y006896
X001881Y006896
X003850Y010833
T111
X015100Y009829
X023450Y023729
X017950Y011429
X030200Y024029
X015900Y015779
X000950Y011679
X018000Y023949
X025180Y014399
X017200Y023479
X026300Y023529
X000500Y002379
X023650Y007329
X016750Y015829
X023260Y017099
X030000Y000829
X005099Y005431
X008650Y010379
X025000Y023879
X008150Y024079
X035550Y023529
X013950Y014079
X019161Y023871
X022310Y023871
X013250Y014079
X011800Y014079
X012550Y014079
X020814Y023871
X039355Y008579
T112
X021045Y008462
X023000Y011279
X009586Y008470
X013480Y004499
X006760Y008439
X019156Y004462
X023000Y013279
X013480Y008499
X012520Y004439
X015376Y004462
X009586Y004470
X023000Y010279
X014431Y008462
X020000Y012279
X022935Y008462
X020000Y013279
X020000Y011279
X007696Y004470
X010600Y004499
X014431Y004462
X020000Y010279
X023000Y016279
X022935Y004462
X008641Y004470
X023000Y015279
X020101Y008462
X012520Y008439
X020000Y015279
X015376Y008462
X011597Y008462
X023000Y012279
X021045Y004462
X008641Y008470
X018211Y008462
X011597Y004462
X016321Y008462
X020101Y004462
X017266Y008462
X017266Y004462
X023000Y014279
X018211Y004462
X021990Y008462
X010600Y008499
X019156Y008462
X020000Y014279
X020000Y016279
X016321Y004462
X006760Y004439
X021990Y004462
X007696Y008470
T00
M30
